<svg height="512" viewBox="0 0 512 512" width="512" xmlns="http://www.w3.org/2000/svg"><g id="_24-payment" data-name="24-payment"><g id="linear_color" data-name="linear color"><path d="m504.437 250.631-56-88a10 10 0 0 0 -7.531-4.59l-64.906-5.903v-4.138a26.029 26.029 0 0 0 -26-26h-232a26.029 26.029 0 0 0 -26 26v144a26.029 26.029 0 0 0 26 26h156.85a9.941 9.941 0 0 0 4.326-1l70.824 108.965v70.035a10 10 0 0 0 20 0v-73a10.01 10.01 0 0 0 -1.615-5.45l-85.015-130.79c11.2-5.082 29.895-10.984 38.488 1.046 2.381 3.337 4.813 6.727 7.182 10.031 21.852 30.4 40.741 55.868 40.93 56.122a10 10 0 0 0 16.654-.9l54-92a10 10 0 0 0 .32-9.535l-24-48a10 10 0 0 0 -7.53-5.427l-33.414-4.77v-21.107l58.2 5.294 51.139 80.36-31.1 139.957a10.017 10.017 0 0 0 -.239 2.169v96a10 10 0 0 0 20 0v-94.9l31.762-142.929a10.006 10.006 0 0 0 -1.325-7.54zm-392.437-68.631h244v13h-244zm6-40h232a6.006 6.006 0 0 1 6 6v14h-244v-14a6.006 6.006 0 0 1 6-6zm259.05 187.863c-7.576-10.311-19.177-26.179-31.761-43.688l-1.8-2.512c-10.93-18.782-28.29-27.714-53.58-20.579a106 106 0 0 0 -26.285 11.484 10.059 10.059 0 0 0 -3.008 13.881l6.207 9.551h-148.823a6.006 6.006 0 0 1 -6-6v-77h244v77a10 10 0 0 0 20 0v-37.425l1.107.226 19.67 41.454zm43.579-74.245-11.611 19.782-15.984-33.686a10 10 0 0 0 -7.034-5.514l-10-2.038v-20.632l25.4 3.628z"/><path d="m216 233h-81a10 10 0 0 0 0 20h81a10 10 0 0 0 0-20z"/><path d="m391.232 73.987h.016a21.945 21.945 0 0 1 21.952 21.962 10 10 0 0 0 10 10 10 10 0 0 0 10-9.995 41.942 41.942 0 0 0 -41.951-41.972h-.02a10 10 0 0 0 0 20z"/><path d="m391.257 26.012h.043a69.862 69.862 0 0 1 69.875 69.913 10 10 0 0 0 10 10.005 10 10 0 0 0 10-10 89.86 89.86 0 0 0 -89.875-89.918h-.048a10 10 0 0 0 0 20z"/></g></g></svg>